HIERARCHY
ROOT Hips
{
	OFFSET 0.000000 0.000000 0.000000
	CHANNELS 6 Xposition Yposition Zposition Zrotation Yrotation Xrotation 
	JOINT LowerBack
	{
		OFFSET 0.000000 0.000000 0.000000
		CHANNELS 3 Zrotation Yrotation Xrotation
		JOINT Spine
		{
			OFFSET 0.028270 2.035590 -0.193380
			CHANNELS 3 Zrotation Yrotation Xrotation
			JOINT Spine1
			{
				OFFSET 0.056720 2.048850 -0.042750
				CHANNELS 3 Zrotation Yrotation Xrotation
				JOINT Neck
				{
					OFFSET 0.000000 0.000000 0.000000
					CHANNELS 3 Zrotation Yrotation Xrotation
					JOINT Neck1
					{
						OFFSET -0.054170 1.746240 0.172020
						CHANNELS 3 Zrotation Yrotation Xrotation
						JOINT Head
						{
							OFFSET 0.104070 1.761360 -0.123970
							CHANNELS 3 Zrotation Yrotation Xrotation
							End Site
							{
								OFFSET 0.000000 0.000000 0.000000
							}
						}
					}
				}
				JOINT LeftShoulder
				{
					OFFSET 0.000000 0.000000 0.000000
					CHANNELS 3 Zrotation Yrotation Xrotation
					JOINT LeftArm
					{
						OFFSET 3.362410 1.200890 -0.311210
						CHANNELS 3 Zrotation Yrotation Xrotation
						JOINT LeftForeArm
						{
							OFFSET 4.983000 -0.000000 -0.000000
							CHANNELS 3 Zrotation Yrotation Xrotation
							JOINT LeftHand
							{
								OFFSET 3.483560 -0.000000 -0.000000
								CHANNELS 3 Zrotation Yrotation Xrotation
								JOINT LeftFingerBase
								{
									OFFSET 0.000000 0.000000 0.000000
									CHANNELS 3 Zrotation Yrotation Xrotation
									JOINT LeftHandIndex1
									{
										OFFSET 0.715260 -0.000000 -0.000000
										CHANNELS 3 Zrotation Yrotation Xrotation
										End Site
										{
											OFFSET 0.000000 0.000000 0.000000
										}
									}
								}
								JOINT LThumb
								{
									OFFSET 0.000000 0.000000 0.000000
									CHANNELS 3 Zrotation Yrotation Xrotation
									End Site
									{
										OFFSET 0.000000 0.000000 0.000000
									}
								}
							}
						}
					}
				}
				JOINT RightShoulder
				{
					OFFSET 0.000000 0.000000 0.000000
					CHANNELS 3 Zrotation Yrotation Xrotation
					JOINT RightArm
					{
						OFFSET -3.136600 1.374050 -0.404650
						CHANNELS 3 Zrotation Yrotation Xrotation
						JOINT RightForeArm
						{
							OFFSET -5.241900 -0.000000 -0.000000
							CHANNELS 3 Zrotation Yrotation Xrotation
							JOINT RightHand
							{
								OFFSET -3.444170 -0.000000 -0.000000
								CHANNELS 3 Zrotation Yrotation Xrotation
								JOINT RightFingerBase
								{
									OFFSET 0.000000 0.000000 0.000000
									CHANNELS 3 Zrotation Yrotation Xrotation
									JOINT RightHandIndex1
									{
										OFFSET -0.622530 -0.000000 -0.000000
										CHANNELS 3 Zrotation Yrotation Xrotation
										End Site
										{
											OFFSET 0.000000 0.000000 0.000000
										}
									}
								}
								JOINT RThumb
								{
									OFFSET 0.000000 0.000000 0.000000
									CHANNELS 3 Zrotation Yrotation Xrotation
									End Site
									{
										OFFSET 0.000000 0.000000 0.000000
									}
								}
							}
						}
					}
				}
			}
		}
	}
}
}
MOTION
Frames: 6
Frame Time: 0.008333
5.064356 17.333966 0.899541 -143.738010 -84.823864 155.808631 2.206685 -4.275383 -10.846988 0.229627 -4.979775 -5.492694 -5.207650 -4.898577 -4.103541 6.347699 -2.681254 6.186788 -2.663013 -0.369936 3.872833 0.000000 0.000000 0.000000 13.805579 4.040157 -7.302122 -71.694605 -70.418692 -2.136673 173.877396 -54.502050 179.460215 28.949604 -19.246528 -5.486205 -0.382962 1.467886 -0.000000 0.000000 0.000000 0.000000 0.000000 0.000000 0.000000 3.162574 -9.394306 -8.114445 63.125215 69.866258 -13.827186 -173.998405 54.581107 179.610915 -22.052899 24.027176 -5.066418 0.140054 -1.312119 0.000000 0.000000 0.000000 0.000000 0.000000 0.000000 0.000000 
5.057312 17.333282 0.896659 -112.618226 -86.776458 124.968314 2.024761 -4.836071 -11.002246 0.307547 -5.483302 -5.546803 -5.079447 -5.395558 -4.287497 6.210965 -2.536232 6.196813 -2.569035 -0.366343 3.879228 0.000000 0.000000 0.000000 13.658546 3.614622 -7.261131 -71.618759 -70.927733 -2.124507 173.771774 -54.531769 179.456486 29.243714 -19.237942 -5.539549 -0.382727 1.461302 -0.000000 0.000000 0.000000 0.000000 0.000000 0.000000 0.000000 2.909763 -9.466413 -8.122316 61.272133 70.707111 -15.810772 -173.954233 55.094938 179.607209 -22.487171 24.048333 -5.173059 0.147798 -1.308522 0.000000 0.000000 0.000000 0.000000 0.000000 0.000000 0.000000 
5.052243 17.332553 0.893864 -60.924646 -88.318439 73.552408 0.600132 -5.309914 -11.129211 0.111110 -5.717386 -5.607370 -4.869417 -5.652733 -4.515403 6.020122 -2.345327 6.209214 -2.463137 -0.363103 3.886547 0.000000 0.000000 0.000000 13.492994 3.250901 -7.215298 -71.458790 -71.472161 -2.211425 173.615809 -54.556305 179.450102 29.648645 -19.422775 -5.669025 -0.380609 1.458326 -0.000000 0.000000 0.000000 0.000000 0.000000 0.000000 0.000000 2.632159 -9.360944 -8.116666 59.086734 71.626211 -18.069741 -173.964900 55.791263 179.604355 -22.897704 24.196400 -5.301966 0.155294 -1.306137 0.000000 0.000000 0.000000 0.000000 0.000000 0.000000 0.000000 
5.047232 17.330877 0.896288 -25.412980 -88.279273 38.411526 -0.005229 -5.183281 -11.305260 -0.023962 -5.544731 -5.715812 -4.699061 -5.499094 -4.807671 5.670271 -2.101481 6.209321 -2.352984 -0.358494 3.893944 0.000000 0.000000 0.000000 13.195651 3.061992 -7.147824 -71.347285 -72.065164 -2.348044 173.467529 -54.571896 179.442428 30.161043 -19.766272 -5.868248 -0.381785 1.460182 -0.000000 0.000000 0.000000 0.000000 0.000000 0.000000 0.000000 2.169823 -9.001868 -8.103734 56.538380 72.578267 -20.654184 -174.001501 56.690209 179.601509 -23.289982 24.520893 -5.466583 0.160943 -1.305977 -0.000000 0.000000 0.000000 0.000000 0.000000 0.000000 0.000000 
5.046817 17.330257 0.893101 -17.697423 -87.483278 30.996068 0.010587 -4.970787 -11.343416 -0.020505 -5.365893 -5.812761 -4.566210 -5.328635 -5.169921 5.323948 -1.815948 6.213986 -2.226410 -0.352990 3.900913 0.000000 0.000000 0.000000 12.863603 2.834955 -7.066707 -71.160328 -72.746721 -2.569731 173.320538 -54.614349 179.433963 30.767075 -20.220883 -6.122740 -0.383097 1.462385 -0.000000 0.000000 0.000000 0.000000 0.000000 0.000000 0.000000 1.651807 -8.521088 -8.133419 53.550771 73.426160 -23.672460 -174.063152 57.787532 179.598104 -23.676292 25.050795 -5.678186 0.163176 -1.306961 -0.000000 0.000000 0.000000 0.000000 0.000000 0.000000 0.000000 
5.049196 17.329997 0.889032 -13.101422 -86.474789 26.705223 0.044630 -4.786145 -11.326399 -0.003434 -5.205646 -5.909876 -4.420847 -5.174818 -5.580583 4.919623 -1.512793 6.213948 -2.074130 -0.346527 3.907201 0.000000 0.000000 0.000000 12.455324 2.559122 -6.955961 -70.944728 -73.522744 -2.852383 173.177627 -54.695413 179.425126 31.447564 -20.698372 -6.405370 -0.384983 1.463476 -0.000000 0.000000 0.000000 0.000000 0.000000 0.000000 0.000000 0.968021 -7.971726 -8.211606 50.250731 74.120738 -27.102350 -174.157300 59.077597 179.594571 -24.058573 25.781942 -5.939226 0.163751 -1.310534 -0.000000 0.000000 0.000000 0.000000 0.000000 0.000000 0.000000 
